<svg xmlns="http://www.w3.org/2000/svg" width="218.271" height="73.115" viewBox="0 0 218.271 73.115">
  <g id="Group_1530" data-name="Group 1530" transform="translate(3137.171 -557)">
    <path id="Path_359" data-name="Path 359" d="M-2075.193,557h-191.477c-11.428,0-13.331,3.957-13.331,13.368v46.464c0,9.4,3.914,13.284,13.318,13.284h191.491c9.41,0,13.462-3.886,13.462-13.3V570.368C-2061.729,560.957-2065.782,557-2075.193,557Z" transform="translate(-857.171)" fill="#fff" fill-rule="evenodd"/>
    <g id="Group_1456" data-name="Group 1456" transform="translate(-3075.284 591.042)">
      <path id="Path_360" data-name="Path 360" d="M-1946.866,723.194a7.067,7.067,0,0,0-7.223,7.222,7.169,7.169,0,0,0,7.223,7.223,7.067,7.067,0,0,0,7.223-7.223A6.969,6.969,0,0,0-1946.866,723.194Zm0,11.422a4.169,4.169,0,0,1-4.031-4.367,4.169,4.169,0,0,1,4.031-4.367,4.069,4.069,0,0,1,4.031,4.367A4.169,4.169,0,0,1-1946.866,734.615Zm-15.621-11.422a7.067,7.067,0,0,0-7.223,7.222,7.169,7.169,0,0,0,7.223,7.223,7.067,7.067,0,0,0,7.223-7.223A6.968,6.968,0,0,0-1962.487,723.194Zm0,11.422a4.169,4.169,0,0,1-4.031-4.367,4.169,4.169,0,0,1,4.031-4.367,4.069,4.069,0,0,1,4.031,4.367A4.169,4.169,0,0,1-1962.487,734.615Zm-18.645-9.238V728.4h7.223a6.348,6.348,0,0,1-1.68,3.863,7.433,7.433,0,0,1-5.543,2.184,7.82,7.82,0,0,1-7.894-8.062,7.923,7.923,0,0,1,7.894-8.062,8.329,8.329,0,0,1,5.543,2.184l2.184-2.184a10.763,10.763,0,0,0-7.559-3.023,11.331,11.331,0,0,0-11.254,11.086,11.331,11.331,0,0,0,11.254,11.086,9.667,9.667,0,0,0,7.727-3.192,10.112,10.112,0,0,0,2.688-7.055,6.288,6.288,0,0,0-.168-1.848Zm76.258,2.351a6.526,6.526,0,0,0-6.047-4.535c-3.7,0-6.719,2.855-6.719,7.222a7.029,7.029,0,0,0,7.054,7.223,6.89,6.89,0,0,0,5.879-3.192l-2.352-1.68a4.094,4.094,0,0,1-3.527,2.016,3.644,3.644,0,0,1-3.527-2.184l9.574-4.031-.336-.84Zm-9.742,2.352a4.08,4.08,0,0,1,3.7-4.2,2.971,2.971,0,0,1,2.688,1.512l-6.383,2.687Zm-7.895,6.887h3.192v-21h-3.192Zm-5.039-12.262a5.531,5.531,0,0,0-3.863-1.679,7.217,7.217,0,0,0-6.887,7.222,6.955,6.955,0,0,0,6.887,7.055,4.823,4.823,0,0,0,3.7-1.68h.168v1.008c0,2.688-1.512,4.2-3.863,4.2a3.732,3.732,0,0,1-3.528-2.519l-2.687,1.176a6.929,6.929,0,0,0,6.383,4.2c3.7,0,6.719-2.184,6.719-7.391V723.529h-3.023v1.176Zm-3.7,9.91a4.169,4.169,0,0,1-4.031-4.367,4.169,4.169,0,0,1,4.031-4.367c2.183,0,3.863,1.848,3.863,4.367S-1929.061,734.615-1931.245,734.615Zm40.984-18.644h-7.559v21h3.191v-7.894h4.367a6.629,6.629,0,0,0,6.886-6.551A6.629,6.629,0,0,0-1890.26,715.971Zm.168,10.078h-4.535v-7.222h4.535a3.69,3.69,0,0,1,3.7,3.527,3.844,3.844,0,0,1-3.7,3.7Zm19.316-3.023c-2.352,0-4.7,1.008-5.543,3.191l2.855,1.176a2.967,2.967,0,0,1,2.856-1.512,3.157,3.157,0,0,1,3.359,2.687v.168a6.663,6.663,0,0,0-3.191-.84c-3.024,0-6.047,1.68-6.047,4.7,0,2.856,2.519,4.7,5.207,4.7a4.727,4.727,0,0,0,4.031-2.016h.168v1.68h3.023V728.9c-.336-3.7-3.191-5.879-6.719-5.879Zm-.336,11.59c-1.008,0-2.52-.5-2.52-1.848,0-1.679,1.848-2.183,3.36-2.183a6.493,6.493,0,0,1,2.855.672A3.912,3.912,0,0,1-1871.112,734.615Zm17.637-11.086L-1857,732.6h-.168l-3.7-9.07h-3.36l5.543,12.766-3.191,7.055h3.191l8.566-19.82Zm-28.219,13.437h3.192v-21h-3.192Z" transform="translate(1992.217 -715.299)" fill="#030504"/>
    </g>
    <g id="Group_1457" data-name="Group 1457" transform="translate(-3075.018 574.187)">
      <path id="Path_361" data-name="Path 361" d="M-1985.385,641.978h5.233a3.482,3.482,0,0,1,.075.432,4.362,4.362,0,0,1,.03.507,5.919,5.919,0,0,1-.313,1.938,4.486,4.486,0,0,1-.984,1.625,4.934,4.934,0,0,1-1.715,1.178,5.876,5.876,0,0,1-2.281.417,5.775,5.775,0,0,1-2.192-.417,5.454,5.454,0,0,1-1.789-1.163,5.581,5.581,0,0,1-1.208-1.767,5.5,5.5,0,0,1-.447-2.229,5.5,5.5,0,0,1,.447-2.229,5.585,5.585,0,0,1,1.208-1.767,5.458,5.458,0,0,1,1.789-1.163,5.777,5.777,0,0,1,2.192-.417,5.724,5.724,0,0,1,2.318.447,5.2,5.2,0,0,1,1.752,1.237l-1.387,1.357a3.705,3.705,0,0,0-1.163-.843,3.7,3.7,0,0,0-1.536-.291,3.719,3.719,0,0,0-1.386.261,3.474,3.474,0,0,0-1.148.738,3.523,3.523,0,0,0-.783,1.155,3.809,3.809,0,0,0-.291,1.513,3.808,3.808,0,0,0,.291,1.513,3.463,3.463,0,0,0,.79,1.155,3.554,3.554,0,0,0,1.156.738,3.757,3.757,0,0,0,1.4.261,3.737,3.737,0,0,0,1.439-.246,3.373,3.373,0,0,0,1.006-.634,2.415,2.415,0,0,0,.514-.679,3.848,3.848,0,0,0,.336-.917h-3.355Z" transform="translate(1990.976 -636.924)" fill="#030504"/>
      <path id="Path_362" data-name="Path 362" d="M-1930.376,639.942v2.475h4.279v1.909h-4.279V646.8h4.756v1.909h-6.769V638.033h6.769v1.909Z" transform="translate(1944.988 -637.795)" fill="#030504"/>
      <path id="Path_363" data-name="Path 363" d="M-1892.662,648.708v-8.767h-2.982v-1.909h7.977v1.909h-2.982v8.767Z" transform="translate(1916.145 -637.795)" fill="#030504"/>
      <path id="Path_364" data-name="Path 364" d="M-1836.642,638.033h2.013v10.675h-2.013Z" transform="translate(1869.831 -637.795)" fill="#030504"/>
      <path id="Path_365" data-name="Path 365" d="M-1817.645,648.708v-8.767h-2.982v-1.909h7.977v1.909h-2.982v8.767Z" transform="translate(1857.26 -637.795)" fill="#030504"/>
      <path id="Path_366" data-name="Path 366" d="M-1759.862,648.076a5.618,5.618,0,0,1-2.214-.432,5.435,5.435,0,0,1-1.767-1.185,5.483,5.483,0,0,1-1.17-1.774,5.63,5.63,0,0,1-.425-2.184,5.631,5.631,0,0,1,.425-2.184,5.492,5.492,0,0,1,1.17-1.774,5.443,5.443,0,0,1,1.767-1.185,5.617,5.617,0,0,1,2.214-.432,5.619,5.619,0,0,1,2.214.432,5.447,5.447,0,0,1,1.767,1.185,5.494,5.494,0,0,1,1.17,1.774,5.624,5.624,0,0,1,.425,2.184,5.623,5.623,0,0,1-.425,2.184,5.485,5.485,0,0,1-1.17,1.774,5.439,5.439,0,0,1-1.767,1.185A5.62,5.62,0,0,1-1759.862,648.076Zm0-1.908a3.61,3.61,0,0,0,1.394-.268,3.511,3.511,0,0,0,1.133-.746,3.4,3.4,0,0,0,.76-1.156,3.945,3.945,0,0,0,.276-1.5,3.948,3.948,0,0,0-.276-1.5,3.4,3.4,0,0,0-.76-1.155,3.515,3.515,0,0,0-1.133-.746,3.612,3.612,0,0,0-1.394-.268,3.612,3.612,0,0,0-1.394.268,3.506,3.506,0,0,0-1.133.746,3.393,3.393,0,0,0-.76,1.155,3.941,3.941,0,0,0-.276,1.5,3.938,3.938,0,0,0,.276,1.5,3.387,3.387,0,0,0,.76,1.156,3.5,3.5,0,0,0,1.133.746A3.61,3.61,0,0,0-1759.862,646.168Z" transform="translate(1813.939 -636.924)" fill="#030504"/>
      <path id="Path_367" data-name="Path 367" d="M-1706.02,638.033h2.341l4.294,7.157h.119l-.119-2.058v-5.1h2v10.675h-2.117l-4.532-7.559h-.119l.119,2.058v5.5h-1.983Z" transform="translate(1767.298 -637.795)" fill="#030504"/>
    </g>
    <g id="Group_1459" data-name="Group 1459" transform="translate(-3119.322 572.087)">
      <path id="Path_372" data-name="Path 372" d="M-2158.633,642.191l-26.127-15.032,20.638,20.531Z" transform="translate(2187.392 -627.159)" fill="#030504" fill-rule="evenodd"/>
      <path id="Path_373" data-name="Path 373" d="M-2196.792,627.873a1.317,1.317,0,0,0-.208.621v42.537a1.339,1.339,0,0,0,.1.378l21.856-21.9Z" transform="translate(2197 -627.719)" fill="#030504" fill-rule="evenodd"/>
      <path id="Path_374" data-name="Path 374" d="M-2166.984,734.355l-21.427,21.466a1.3,1.3,0,0,0,.186-.087l27.074-15.577Z" transform="translate(2190.258 -711.303)" fill="#030504" fill-rule="evenodd"/>
      <path id="Path_375" data-name="Path 375" d="M-2068.443,706.315l-8.639-4.97-5.825,5.836,6.174,6.142,8.291-4.77A1.291,1.291,0,0,0-2068.443,706.315Z" transform="translate(2107.443 -685.392)" fill="#030504" fill-rule="evenodd"/>
    </g>
  </g>
</svg>
