<svg id="Group_1398" data-name="Group 1398" xmlns="http://www.w3.org/2000/svg" width="60.979" height="61.069" viewBox="0 0 60.979 61.069">
  <ellipse id="Ellipse_24" data-name="Ellipse 24" cx="29.5" cy="30" rx="29.5" ry="30" transform="translate(0.98 1.069)" fill="#fff"/>
  <g id="brands-and-logotypes_2_" data-name="brands-and-logotypes (2)">
    <path id="Path_1783" data-name="Path 1783" d="M291.62,508.668q-.381.062-.765.114Q291.239,508.73,291.62,508.668Zm0,0" transform="translate(-256.214 -448.085)" fill="#577fcb"/>
    <path id="Path_1784" data-name="Path 1784" d="M299.7,507.793c-.121.022-.243.043-.364.064C299.461,507.836,299.583,507.815,299.7,507.793Zm0,0" transform="translate(-263.688 -447.315)" fill="#577fcb"/>
    <path id="Path_1785" data-name="Path 1785" d="M278.506,510.34q-.446.05-.9.088Q278.059,510.391,278.506,510.34Zm0,0" transform="translate(-244.546 -449.558)" fill="#577fcb"/>
    <path id="Path_1786" data-name="Path 1786" d="M286.875,509.738c-.143.019-.287.037-.43.053C286.589,509.775,286.732,509.757,286.875,509.738Zm0,0" transform="translate(-252.33 -449.028)" fill="#577fcb"/>
    <path id="Path_1787" data-name="Path 1787" d="M306.986,506.41l-.322.067Zm0,0" transform="translate(-270.14 -446.097)" fill="#577fcb"/>
    <path id="Path_1788" data-name="Path 1788" d="M324.744,502.113l-.26.072Zm0,0" transform="translate(-285.838 -442.311)" fill="#577fcb"/>
    <path id="Path_1789" data-name="Path 1789" d="M319.341,503.543l-.283.073Zm0,0" transform="translate(-281.059 -443.571)" fill="#577fcb"/>
    <path id="Path_1790" data-name="Path 1790" d="M312.367,505.254l-.3.067Zm0,0" transform="translate(-274.899 -445.078)" fill="#577fcb"/>
    <path id="Path_1791" data-name="Path 1791" d="M273.962,511.09q-.241.02-.482.036Q273.722,511.11,273.962,511.09Zm0,0" transform="translate(-240.909 -450.219)" fill="#577fcb"/>
    <path id="Path_1792" data-name="Path 1792" d="M60.979,30.49a30.49,30.49,0,1,0-30.49,30.49c.179,0,.357,0,.536-.007V37.237H24.475V29.6h6.551V23.986c0-6.515,3.977-10.061,9.789-10.061a53.923,53.923,0,0,1,5.873.3v6.809H42.68c-3.162,0-3.774,1.5-3.774,3.707V29.6h7.56l-.985,7.634H38.906V59.8A30.506,30.506,0,0,0,60.979,30.49Zm0,0" fill="#577fcb"/>
    <path id="Path_1793" data-name="Path 1793" d="M265.846,511.43q-.476.031-.956.047Q265.37,511.461,265.846,511.43Zm0,0" transform="translate(-233.342 -450.518)" fill="#577fcb"/>
    <path id="Path_1794" data-name="Path 1794" d="M261.01,511.836q-.253.008-.506.013Q260.757,511.844,261.01,511.836Zm0,0" transform="translate(-229.478 -450.876)" fill="#577fcb"/>
  </g>
</svg>
