<svg xmlns="http://www.w3.org/2000/svg" width="218.271" height="73.115" viewBox="0 0 218.271 73.115">
  <g id="Group_1529" data-name="Group 1529" transform="translate(3372 -557)">
    <path id="Path_368" data-name="Path 368" d="M-3167.192,557h-191.477c-11.428,0-13.331,3.957-13.331,13.368v46.464c0,9.4,3.914,13.284,13.318,13.284h191.491c9.41,0,13.462-3.886,13.462-13.3V570.368C-3153.729,560.957-3157.782,557-3167.192,557Z" fill="#fff" fill-rule="evenodd"/>
    <g id="Group_1458" data-name="Group 1458" transform="translate(-3355.316 568.171)">
      <path id="Path_369" data-name="Path 369" d="M-3254.194,683.286a33.667,33.667,0,0,1-3.041,5.678c-1.976,3.007-4.759,6.751-8.208,6.783-3.065.028-3.852-1.995-8.011-1.972s-5.028,2.007-8.094,1.979c-3.449-.032-6.087-3.413-8.062-6.419-5.522-8.407-6.1-18.274-2.694-23.519,2.421-3.728,6.239-5.91,9.83-5.91,3.656,0,5.954,2,8.976,2,2.932,0,4.719-2.008,8.945-2.008a11.928,11.928,0,0,1,8.992,4.748c-7.9,4.33-6.619,15.618,1.366,18.635" transform="translate(3294.417 -648.945)" fill="#030504" fill-rule="evenodd"/>
      <path id="Path_370" data-name="Path 370" d="M-3197.188,616.547a10.258,10.258,0,0,0,2.279-7.6,11.085,11.085,0,0,0-7.156,3.849c-1.555,1.889-2.838,4.691-2.338,7.413a9.357,9.357,0,0,0,7.216-3.662" transform="translate(3223.847 -608.947)" fill="#030504" fill-rule="evenodd"/>
    </g>
    <path id="Path_371" data-name="Path 371" d="M-2930.952,728.063h-11.1a4.87,4.87,0,0,0,1.612,3.691,5.464,5.464,0,0,0,3.63,1.134,12.1,12.1,0,0,0,4.489-.812l.582,2.565a13.81,13.81,0,0,1-5.588,1.021,8.077,8.077,0,0,1-6.078-2.276,8.417,8.417,0,0,1-2.215-6.115,9.594,9.594,0,0,1,2.056-6.279,7.12,7.12,0,0,1,5.828-2.668,6.192,6.192,0,0,1,5.449,2.668,9.261,9.261,0,0,1,1.473,5.319A9.745,9.745,0,0,1-2930.952,728.063Zm-15.778-6.11a5.8,5.8,0,0,0-1.194-.094,3.524,3.524,0,0,0-3.028,1.471,5.5,5.5,0,0,0-.939,3.286v8.543h-3.656V723.937c0-1.908-.08-3.616-.145-5.336h3.22l.138,3.441h.1a5.916,5.916,0,0,1,1.85-2.71,4.564,4.564,0,0,1,2.7-.927,6.18,6.18,0,0,1,.947.024Zm-13.38,11.247a7.851,7.851,0,0,1-6.1,2.53,7.459,7.459,0,0,1-5.851-2.433,8.864,8.864,0,0,1-2.17-6.134,9.051,9.051,0,0,1,2.242-6.337,7.744,7.744,0,0,1,6.044-2.463,7.583,7.583,0,0,1,5.9,2.432,8.77,8.77,0,0,1,2.121,6.094A9.141,9.141,0,0,1-2960.111,733.2Zm-15.221-11.588h-3.871v7.955c0,2.055.637,3.073,2.077,3.073a6.346,6.346,0,0,0,1.6-.161l.083,2.8a8.419,8.419,0,0,1-2.889.413,4.5,4.5,0,0,1-3.464-1.337c-.83-.887-1.278-2.385-1.278-4.487v-8.26h-2.366V718.6h2.366v-2.95l3.871-1.1V718.6h3.871Zm-13.008,12.06a9.108,9.108,0,0,1-6.293,2.021,11.031,11.031,0,0,1-5.986-1.437l.86-3.083a10.332,10.332,0,0,0,5.338,1.44,5.076,5.076,0,0,0,3.26-.942,3.082,3.082,0,0,0,1.162-2.529,3.234,3.234,0,0,0-.956-2.356,9.08,9.08,0,0,0-3.186-1.781q-6.059-2.255-6.063-6.609a5.826,5.826,0,0,1,2.136-4.663,8.49,8.49,0,0,1,5.673-1.815,11.3,11.3,0,0,1,5.245,1.094l-.934,3.017a9.153,9.153,0,0,0-4.432-1.064,4.6,4.6,0,0,0-3.064.957,2.774,2.774,0,0,0-.925,2.1,2.86,2.86,0,0,0,1.062,2.268,12.156,12.156,0,0,0,3.354,1.775,11.256,11.256,0,0,1,4.391,2.813,5.882,5.882,0,0,1,1.4,4A6.167,6.167,0,0,1-2988.339,733.672Zm-21.382-.129a6.81,6.81,0,0,1-5.146,2.187,5.266,5.266,0,0,1-4.763-2.369v8.894h-3.656V724.172c0-1.78-.068-3.42-.157-5.571h3.246l.214,2.8h.063a6.3,6.3,0,0,1,5.622-3,6.153,6.153,0,0,1,4.918,2.312,9.138,9.138,0,0,1,1.972,6.126A9.4,9.4,0,0,1-3009.721,733.543Zm-18.3,0a6.788,6.788,0,0,1-5.135,2.187,5.25,5.25,0,0,1-4.758-2.369v8.894h-3.656V724.172c0-1.78-.084-3.42-.178-5.571h3.255l.2,2.8h.065a6.3,6.3,0,0,1,5.626-3,6.17,6.17,0,0,1,4.92,2.312,9.175,9.175,0,0,1,1.968,6.126A9.4,9.4,0,0,1-3028.017,733.543Zm-19.79,1.617-2.157-6.666h-7.506l-2.058,6.666h-3.834l7.429-23.01h4.6l7.474,23.01Zm109.794-14.27a3.651,3.651,0,0,0-2.947,1.618,5.3,5.3,0,0,0-1.1,2.975h7.709a5,5,0,0,0-.716-2.944A3.335,3.335,0,0,0-2938.013,720.889Zm-115.724-5.514h-.064c-.233,1.075-.593,2.506-1.1,4.428l-1.919,6.109h6.2l-1.945-6.109C-3052.776,719.184-3053.169,717.526-3053.737,715.376Zm38.24,5.926a3.827,3.827,0,0,0-2.481.905,4.283,4.283,0,0,0-1.473,2.39,4.965,4.965,0,0,0-.18,1.133V728.5a4.448,4.448,0,0,0,1.124,3.072,3.724,3.724,0,0,0,2.9,1.246,3.791,3.791,0,0,0,3.265-1.61,7.087,7.087,0,0,0,1.17-4.254,6.865,6.865,0,0,0-1.1-4A3.821,3.821,0,0,0-3015.5,721.3Zm49.417-.23a3.7,3.7,0,0,0-3.385,1.981,7.479,7.479,0,0,0-1,3.991,7.363,7.363,0,0,0,1,3.931,3.717,3.717,0,0,0,3.357,1.978,3.68,3.68,0,0,0,3.315-2.019,7.335,7.335,0,0,0,1.034-3.953,7.464,7.464,0,0,0-.989-3.927A3.678,3.678,0,0,0-2966.08,721.071Zm-67.718.23a3.833,3.833,0,0,0-2.48.905,4.257,4.257,0,0,0-1.46,2.39,4.974,4.974,0,0,0-.171,1.133V728.5a4.437,4.437,0,0,0,1.114,3.072,3.717,3.717,0,0,0,2.9,1.246,3.791,3.791,0,0,0,3.259-1.61,7.1,7.1,0,0,0,1.161-4.254,6.837,6.837,0,0,0-1.093-4A3.813,3.813,0,0,0-3033.8,721.3Z" transform="translate(-242.266 -121.603)" fill="#030504" fill-rule="evenodd"/>
    <g id="Group_1460" data-name="Group 1460" transform="translate(-3303.2 572.845)">
      <path id="Path_376" data-name="Path 376" d="M-3052.066,633.351a20.963,20.963,0,0,1,3.308-.236,6.925,6.925,0,0,1,4.642,1.317,5.088,5.088,0,0,1,1.772,4.186,5.887,5.887,0,0,1-1.772,4.523,7.6,7.6,0,0,1-5.148,1.553,22.641,22.641,0,0,1-2.8-.152Zm2.076,9.638a7.7,7.7,0,0,0,1.148.051c2.7.017,4.3-1.469,4.3-4.355.017-2.515-1.435-3.95-4.034-3.95a6.64,6.64,0,0,0-1.418.118Z" transform="translate(3052.066 -632.592)" fill="#030504"/>
      <path id="Path_377" data-name="Path 377" d="M-2992.94,651.541a4.072,4.072,0,0,1-4.22,4.372,3.974,3.974,0,0,1-4.119-4.237,4.058,4.058,0,0,1,4.253-4.355A3.944,3.944,0,0,1-2992.94,651.541Zm-6.195.085c0,1.587.776,2.785,2.042,2.785,1.182,0,2.009-1.165,2.009-2.819,0-1.283-.574-2.751-1.992-2.751C-2998.544,648.84-2999.135,650.258-2999.135,651.625Z" transform="translate(3012.2 -643.743)" fill="#030504"/>
      <path id="Path_378" data-name="Path 378" d="M-2957.155,648.185l.861,3.73c.186.878.371,1.772.523,2.667h.034c.169-.895.439-1.806.675-2.65l1.063-3.747h1.688l1.03,3.646c.253.962.472,1.857.658,2.751h.034c.135-.895.321-1.789.54-2.751l.911-3.646h2.042l-2.583,8.22h-1.924l-.979-3.342a25.172,25.172,0,0,1-.625-2.633h-.034a21.654,21.654,0,0,1-.624,2.633l-1.047,3.342h-1.941l-2.43-8.22Z" transform="translate(2979.235 -644.421)" fill="#030504"/>
      <path id="Path_379" data-name="Path 379" d="M-2896.653,649.954c0-.945-.017-1.739-.067-2.448h1.823l.1,1.232h.05a2.964,2.964,0,0,1,2.616-1.418c1.435,0,2.92.929,2.92,3.528v4.878h-2.076v-4.642c0-1.182-.439-2.076-1.57-2.076a1.742,1.742,0,0,0-1.62,1.215,2.12,2.12,0,0,0-.084.675v4.827h-2.093Z" transform="translate(2930.126 -643.743)" fill="#030504"/>
      <path id="Path_380" data-name="Path 380" d="M-2851.506,630.682h2.093v11.984h-2.093Z" transform="translate(2894.635 -630.682)" fill="#030504"/>
      <path id="Path_381" data-name="Path 381" d="M-2825.428,651.541a4.072,4.072,0,0,1-4.22,4.372,3.975,3.975,0,0,1-4.119-4.237,4.059,4.059,0,0,1,4.254-4.355A3.944,3.944,0,0,1-2825.428,651.541Zm-6.195.085c0,1.587.777,2.785,2.042,2.785,1.182,0,2.009-1.165,2.009-2.819,0-1.283-.574-2.751-1.992-2.751C-2831.032,648.84-2831.623,650.258-2831.623,651.625Z" transform="translate(2880.711 -643.743)" fill="#030504"/>
      <path id="Path_382" data-name="Path 382" d="M-2784.53,655.727l-.135-.911h-.05a3.054,3.054,0,0,1-2.431,1.1,2.44,2.44,0,0,1-2.583-2.447c0-2.076,1.84-3.123,4.878-3.106v-.135c0-.54-.219-1.435-1.671-1.435a4.355,4.355,0,0,0-2.211.608l-.4-1.35a5.916,5.916,0,0,1,2.971-.726c2.633,0,3.393,1.671,3.393,3.46v2.971a13.237,13.237,0,0,0,.118,1.975Zm-.27-4.017c-1.469-.034-2.869.287-2.869,1.536a1.09,1.09,0,0,0,1.181,1.182,1.682,1.682,0,0,0,1.62-1.131,1.5,1.5,0,0,0,.068-.456Z" transform="translate(2846.143 -643.743)" fill="#030504"/>
      <path id="Path_383" data-name="Path 383" d="M-2741.516,630.682v9.672c0,.844.034,1.755.067,2.312h-1.856l-.084-1.3h-.034a2.958,2.958,0,0,1-2.684,1.485c-1.958,0-3.511-1.671-3.511-4.2-.017-2.751,1.7-4.389,3.68-4.389a2.618,2.618,0,0,1,2.312,1.08h.034v-4.659Zm-2.076,7.19a2.932,2.932,0,0,0-.051-.54,1.818,1.818,0,0,0-1.789-1.469c-1.333,0-2.076,1.181-2.076,2.718,0,1.5.743,2.6,2.059,2.6a1.832,1.832,0,0,0,1.789-1.469,2.327,2.327,0,0,0,.067-.608Z" transform="translate(2814.658 -630.682)" fill="#030504"/>
      <path id="Path_384" data-name="Path 384" d="M-2679.425,651.541a4.072,4.072,0,0,1-4.22,4.372,3.974,3.974,0,0,1-4.118-4.237,4.058,4.058,0,0,1,4.253-4.355A3.944,3.944,0,0,1-2679.425,651.541Zm-6.195.085c0,1.587.776,2.785,2.042,2.785,1.181,0,2.009-1.165,2.009-2.819,0-1.283-.574-2.751-1.992-2.751C-2685.029,648.84-2685.619,650.258-2685.619,651.625Z" transform="translate(2766.104 -643.743)" fill="#030504"/>
      <path id="Path_385" data-name="Path 385" d="M-2641.3,649.954c0-.945-.017-1.739-.068-2.448h1.823l.1,1.232h.051a2.964,2.964,0,0,1,2.616-1.418c1.435,0,2.92.929,2.92,3.528v4.878h-2.076v-4.642c0-1.182-.439-2.076-1.57-2.076a1.743,1.743,0,0,0-1.621,1.215,2.12,2.12,0,0,0-.084.675v4.827h-2.093Z" transform="translate(2729.69 -643.743)" fill="#030504"/>
      <path id="Path_386" data-name="Path 386" d="M-2580.549,637.274v2.346h1.975v1.553h-1.975V644.8c0,1,.27,1.519,1.063,1.519a3.075,3.075,0,0,0,.81-.1l.034,1.587a4.56,4.56,0,0,1-1.5.2,2.4,2.4,0,0,1-1.789-.675,3.275,3.275,0,0,1-.641-2.3v-3.865h-1.182V639.62h1.182v-1.857Z" transform="translate(2684.464 -635.856)" fill="#030504"/>
      <path id="Path_387" data-name="Path 387" d="M-2552.357,630.682h2.093v4.895h.034a2.784,2.784,0,0,1,1.03-.945,2.817,2.817,0,0,1,1.418-.371c1.4,0,2.869.929,2.869,3.562v4.844h-2.076v-4.608c0-1.2-.438-2.093-1.586-2.093a1.694,1.694,0,0,0-1.6,1.165,1.746,1.746,0,0,0-.084.625v4.912h-2.093Z" transform="translate(2659.817 -630.682)" fill="#030504"/>
      <path id="Path_388" data-name="Path 388" d="M-2507.9,652.2a2.233,2.233,0,0,0,2.532,2.127,6.171,6.171,0,0,0,2.279-.372l.3,1.435a7.741,7.741,0,0,1-2.87.506,3.889,3.889,0,0,1-4.237-4.152c0-2.279,1.384-4.422,4.017-4.422,2.667,0,3.545,2.194,3.545,4a5.087,5.087,0,0,1-.068.878Zm3.612-1.452a1.767,1.767,0,0,0-1.7-2.009,2.031,2.031,0,0,0-1.907,2.009Z" transform="translate(2626.483 -643.743)" fill="#030504"/>
    </g>
  </g>
</svg>
