<svg id="Group_1472" data-name="Group 1472" xmlns="http://www.w3.org/2000/svg" width="23.826" height="23.826" viewBox="0 0 23.826 23.826">
  <path id="Path_322" data-name="Path 322" d="M993.035,1259.349h-3.808a9.714,9.714,0,0,1,1.869-5.281,10.492,10.492,0,0,0,2.518,1.257A16.694,16.694,0,0,0,993.035,1259.349Z" transform="translate(-984.91 -1250.328)" fill="#f62e2e"/>
  <path id="Path_323" data-name="Path 323" d="M989.231,1284.36a9.721,9.721,0,0,0,.556,2.809h3.547a16.628,16.628,0,0,1-.3-2.809Z" transform="translate(-984.913 -1274.385)" fill="#f62e2e"/>
  <path id="Path_324" data-name="Path 324" d="M1012.923,1261.584a15.474,15.474,0,0,0-.558,3.734h4.514v-3.174A16.715,16.715,0,0,1,1012.923,1261.584Z" transform="translate(-1003.285 -1256.297)" fill="#f62e2e"/>
  <path id="Path_325" data-name="Path 325" d="M1042.889,1261.584a16.716,16.716,0,0,1-3.956.56v3.174h4.514a15.48,15.48,0,0,0-.558-3.734Z" transform="translate(-1024.384 -1256.297)" fill="#f62e2e"/>
  <path id="Path_326" data-name="Path 326" d="M1016.531,1241.242a15.5,15.5,0,0,0,3.656.536v-4.636C1018.685,1237.422,1017.353,1239,1016.531,1241.242Z" transform="translate(-1006.593 -1236.887)" fill="#f62e2e"/>
  <path id="Path_327" data-name="Path 327" d="M1063.268,1259.349h3.808a9.715,9.715,0,0,0-1.869-5.281,10.491,10.491,0,0,1-2.518,1.257A16.679,16.679,0,0,1,1063.268,1259.349Z" transform="translate(-1043.25 -1250.328)" fill="#f62e2e"/>
  <path id="Path_328" data-name="Path 328" d="M1012.7,1287.169h.463a1.984,1.984,0,0,1,1.406.582,16.1,16.1,0,0,1,2.311-.214v-3.177h-4.514A15.187,15.187,0,0,0,1012.7,1287.169Z" transform="translate(-1003.286 -1274.385)" fill="#f62e2e"/>
  <path id="Path_329" data-name="Path 329" d="M1038.933,1237.143v4.636a15.491,15.491,0,0,0,3.656-.536C1041.767,1239,1040.435,1237.422,1038.933,1237.143Z" transform="translate(-1024.384 -1236.887)" fill="#f62e2e"/>
  <path id="Path_330" data-name="Path 330" d="M1042.589,1304.972a15.5,15.5,0,0,0-3.656-.536v4.636C1040.435,1308.792,1041.767,1307.217,1042.589,1304.972Z" transform="translate(-1024.384 -1290.328)" fill="#f62e2e"/>
  <path id="Path_331" data-name="Path 331" d="M1050.426,1239.962a9.841,9.841,0,0,0,2.193-1.087,9.755,9.755,0,0,0-5-2.972A8.207,8.207,0,0,1,1050.426,1239.962Z" transform="translate(-1031.284 -1235.903)" fill="#f62e2e"/>
  <path id="Path_332" data-name="Path 332" d="M1006.323,1235.9a9.758,9.758,0,0,0-5,2.972,9.873,9.873,0,0,0,2.194,1.088A8.211,8.211,0,0,1,1006.323,1235.9Z" transform="translate(-994.518 -1235.902)" fill="#f62e2e"/>
  <path id="Path_333" data-name="Path 333" d="M1027.39,1309.071v-4.635a14.405,14.405,0,0,0-1.79.154,1.893,1.893,0,0,1,.072.522v3.026a3.439,3.439,0,0,0,1.718.935Z" transform="translate(-1013.795 -1290.327)" fill="#f62e2e"/>
  <path id="Path_334" data-name="Path 334" d="M1047.622,1312.536a9.757,9.757,0,0,0,5-2.972,9.855,9.855,0,0,0-2.194-1.088,8.208,8.208,0,0,1-2.8,4.06Z" transform="translate(-1031.284 -1293.536)" fill="#f62e2e"/>
  <path id="Path_335" data-name="Path 335" d="M1043.447,1284.362h-4.514v3.177a16.728,16.728,0,0,1,3.956.56A15.479,15.479,0,0,0,1043.447,1284.362Z" transform="translate(-1024.384 -1274.386)" fill="#f62e2e"/>
  <path id="Path_336" data-name="Path 336" d="M1063.268,1284.362a16.683,16.683,0,0,1-.579,4.027,10.5,10.5,0,0,1,2.518,1.257,9.718,9.718,0,0,0,1.869-5.284Z" transform="translate(-1043.25 -1274.386)" fill="#f62e2e"/>
  <path id="Path_337" data-name="Path 337" d="M978.131,1304.436h-9.2a.676.676,0,0,0-.676.676v6.319a.676.676,0,0,0,.676.676h.714v1.746a.3.3,0,0,0,.471.25l2.94-2h5.075a.676.676,0,0,0,.676-.676v-6.319h0A.676.676,0,0,0,978.131,1304.436Zm-7.746,4.792a.957.957,0,0,1-.957-.957h0a.957.957,0,1,1,.957.957Zm3.145,0a.957.957,0,1,1,0-1.915h0a.957.957,0,0,1,0,1.915Zm3.145,0a.957.957,0,1,1,.957-.957A.957.957,0,0,1,976.676,1309.229Z" transform="translate(-968.255 -1290.328)" fill="#f62e2e" opacity="0.5"/>
</svg>
