<svg xmlns="http://www.w3.org/2000/svg" width="17.455" height="18.759" viewBox="0 0 17.455 18.759">
  <g id="Group_1480" data-name="Group 1480" transform="translate(0)">
    <g id="Group_1" data-name="Group 1" transform="translate(0)">
      <path id="Path_1" data-name="Path 1" d="M983.069,379.05a2.639,2.639,0,0,0,1.792-.719,2.913,2.913,0,0,0,.924-2.167V363.176a2.874,2.874,0,0,0-1.88-2.744l-.051-.017a2.5,2.5,0,0,0-.893-.122,1.979,1.979,0,0,0-.258.023,2.6,2.6,0,0,0-.934.328l-11.225,6.49a2.97,2.97,0,0,0-.006,5.066l11.232,6.494a2.326,2.326,0,0,0,.258.13.77.77,0,0,0,.086.036,2.466,2.466,0,0,0,.6.162A2.5,2.5,0,0,0,983.069,379.05Zm.685-17.962a2.209,2.209,0,0,1,1.4,2.089v12.988a2.232,2.232,0,0,1-.707,1.66,2.005,2.005,0,0,1-1.65.534,1.892,1.892,0,0,1-.466-.128l-.033-.013-.023-.011a1.731,1.731,0,0,1-.2-.1l-11.234-6.495a2.278,2.278,0,0,1,0-3.882l11.232-6.494a2,2,0,0,1,.719-.253,1.449,1.449,0,0,1,.19-.017,1.894,1.894,0,0,1,.724.106Z" transform="translate(-969.121 -360.291)" fill="#fff"/>
    </g>
    <g id="Group_3" data-name="Group 3" transform="translate(1.425 0.86)">
      <path id="Path_3" data-name="Path 3" d="M954.517,388.137l6.126,3.337,5.106,2.781a2.089,2.089,0,0,0,.234.111.456.456,0,0,0,.059.024,2.31,2.31,0,0,0,.538.139,2.4,2.4,0,0,0,2.716-2.381V379.913a2.394,2.394,0,0,0-1.662-2.284h0a2.321,2.321,0,0,0-.829-.116,1.84,1.84,0,0,0-.226.019,2.393,2.393,0,0,0-.828.274l-11.226,6.115-.006,0A2.4,2.4,0,0,0,954.517,388.137Z" transform="translate(-953.266 -377.511)" fill="#e50019"/>
    </g>
  </g>
</svg>
