<svg xmlns="http://www.w3.org/2000/svg" width="23" height="23" viewBox="0 0 23 23">
  <path id="Subtraction_4" data-name="Subtraction 4" d="M11,22A11,11,0,0,1,6.718.864a11,11,0,0,1,8.563,20.271A10.931,10.931,0,0,1,11,22ZM7.116,10.445A.555.555,0,0,0,6.561,11v4.993a.555.555,0,0,0,.555.555h7.768a.555.555,0,0,0,.555-.555V11a.555.555,0,0,0-.555-.555h-.832V8.5a3.051,3.051,0,1,0-6.1,0v1.942ZM11,14.329a.832.832,0,1,1,.832-.832A.833.833,0,0,1,11,14.329Zm2.5-3.884H8.5V8.5a2.5,2.5,0,1,1,4.993,0v1.942Z" transform="translate(0.5 0.5)" fill="#fff" stroke="rgba(0,0,0,0)" stroke-miterlimit="10" stroke-width="1"/>
</svg>
