<svg xmlns="http://www.w3.org/2000/svg" width="23.299" height="23.298" viewBox="0 0 23.299 23.298">
  <g id="Group_19" data-name="Group 19" transform="translate(0 0)">
    <path id="Path_9" data-name="Path 9" d="M750.6,623.911a9.343,9.343,0,1,1,9.14-9.341A9.252,9.252,0,0,1,750.6,623.911Zm0-2.5a6.847,6.847,0,1,0-6.712-6.845A6.779,6.779,0,0,0,750.6,621.416Z" transform="translate(-741.457 -605.23)" fill="#fff"/>
    <path id="Path_10" data-name="Path 10" d="M785.106,651.642l-5.343-6.2a3.5,3.5,0,0,0,.466-1.067l7.027,5.259c1.242.932,1.676,2.234.96,2.9S786.1,652.8,785.106,651.642Z" transform="translate(-765.262 -629.559)" fill="#fff"/>
  </g>
</svg>
