<svg xmlns="http://www.w3.org/2000/svg" width="41.358" height="44.448" viewBox="0 0 41.358 44.448">
  <g id="Group_1452" data-name="Group 1452" transform="translate(0)">
    <g id="Group_1" data-name="Group 1" transform="translate(0)">
      <path id="Path_1" data-name="Path 1" d="M1002.169,404.738a6.252,6.252,0,0,0,4.245-1.7,6.9,6.9,0,0,0,2.189-5.133V367.127a6.81,6.81,0,0,0-4.454-6.5l-.121-.04a5.93,5.93,0,0,0-2.115-.29,4.688,4.688,0,0,0-.612.056,6.155,6.155,0,0,0-2.213.778l-26.6,15.378a7.037,7.037,0,0,0-.015,12L999.09,403.9a5.519,5.519,0,0,0,.611.308,1.859,1.859,0,0,0,.2.086,5.838,5.838,0,0,0,1.414.384A5.912,5.912,0,0,0,1002.169,404.738Zm1.622-42.56a5.235,5.235,0,0,1,3.312,4.949V397.9a5.289,5.289,0,0,1-1.676,3.934,4.751,4.751,0,0,1-3.909,1.265,4.481,4.481,0,0,1-1.1-.3.626.626,0,0,1-.077-.031l-.055-.026a4.116,4.116,0,0,1-.471-.237l-26.617-15.389a5.4,5.4,0,0,1,0-9.2l26.613-15.387a4.728,4.728,0,0,1,1.7-.6,3.424,3.424,0,0,1,.451-.04,4.489,4.489,0,0,1,1.715.25Z" transform="translate(-969.121 -360.291)" fill="#fff"/>
    </g>
    <g id="Group_3" data-name="Group 3" transform="translate(3.376 2.037)">
      <path id="Path_3" data-name="Path 3" d="M956.231,402.689l14.514,7.906,12.1,6.59a4.957,4.957,0,0,0,.555.263,1.078,1.078,0,0,0,.139.056,5.471,5.471,0,0,0,1.275.33,5.692,5.692,0,0,0,6.436-5.641V383.2a5.671,5.671,0,0,0-3.938-5.412h0a5.5,5.5,0,0,0-1.965-.274,4.362,4.362,0,0,0-.536.045,5.671,5.671,0,0,0-1.961.649l-26.6,14.488-.015.007A5.685,5.685,0,0,0,956.231,402.689Z" transform="translate(-953.266 -377.511)" fill="#e50019"/>
    </g>
  </g>
</svg>
