<svg id="windows-media-audio" xmlns="http://www.w3.org/2000/svg" width="60.445" height="60.445" viewBox="0 0 60.445 60.445">
  <ellipse id="Ellipse_23" data-name="Ellipse 23" cx="30.222" cy="30.222" rx="30.222" ry="30.222" transform="translate(0 0)" fill="#55acee"/>
  <g id="Group_1377" data-name="Group 1377" transform="translate(13.523 18.332)">
    <path id="Path_1795" data-name="Path 1795" d="M60.314,37.416a14.413,14.413,0,0,1-4.149,1.136,7.244,7.244,0,0,0,3.177-4,14.461,14.461,0,0,1-4.587,1.753,7.23,7.23,0,0,0-12.31,6.59,20.507,20.507,0,0,1-14.89-7.549,7.232,7.232,0,0,0,2.235,9.645,7.173,7.173,0,0,1-3.272-.9c0,.031,0,.061,0,.092a7.228,7.228,0,0,0,5.8,7.083,7.252,7.252,0,0,1-3.262.125A7.232,7.232,0,0,0,35.8,56.406,14.583,14.583,0,0,1,25.1,59.4a20.434,20.434,0,0,0,11.073,3.246c13.288,0,20.554-11.008,20.554-20.555,0-.313-.007-.625-.021-.934a14.649,14.649,0,0,0,3.605-3.739Z" transform="translate(-25.103 -34.028)" fill="#f1f2f2"/>
  </g>
</svg>
