<svg xmlns="http://www.w3.org/2000/svg" width="22" height="22" viewBox="0 0 22 22">
  <path id="Subtraction_3" data-name="Subtraction 3" d="M10.5,21A10.5,10.5,0,1,1,21,10.5,10.512,10.512,0,0,1,10.5,21ZM8.034,10.058a.15.15,0,0,0-.106.046,5.263,5.263,0,0,0-2.077,4.635c0,.714,2.263,1.039,4.365,1.039s4.366-.325,4.366-1.039A5.261,5.261,0,0,0,12.5,10.1a.257.257,0,0,0-.21,0,3.542,3.542,0,0,1-2.078.692A3.31,3.31,0,0,1,8.139,10.1.147.147,0,0,0,8.034,10.058Zm2.182-5.4a2.619,2.619,0,1,0,2.619,2.619A2.622,2.622,0,0,0,10.216,4.654Z" transform="translate(0.5 0.5)" fill="#fff" stroke="rgba(0,0,0,0)" stroke-miterlimit="10" stroke-width="1"/>
</svg>
