<svg id="brands-and-logotypes_1_" data-name="brands-and-logotypes (1)" xmlns="http://www.w3.org/2000/svg" width="61.417" height="61.417" viewBox="0 0 61.417 61.417">
  <path id="Path_1781" data-name="Path 1781" d="M30.716,0H30.7A30.689,30.689,0,0,0,5.846,48.707L2.019,60.116l11.8-3.773A30.7,30.7,0,1,0,30.716,0Z" transform="translate(0 0)" fill="#4caf50"/>
  <path id="Path_1782" data-name="Path 1782" d="M142.982,146.407c-.741,2.092-3.681,3.827-6.027,4.334-1.6.342-3.7.614-10.756-2.311-9.024-3.739-14.836-12.909-15.289-13.5-.434-.595-3.647-4.856-3.647-9.262a9.8,9.8,0,0,1,3.14-7.474,4.462,4.462,0,0,1,3.14-1.1c.38,0,.722.019,1.029.035.9.038,1.355.092,1.95,1.516.741,1.785,2.545,6.192,2.76,6.645a1.828,1.828,0,0,1,.131,1.662,5.307,5.307,0,0,1-.994,1.409c-.453.522-.883.921-1.336,1.482-.415.487-.883,1.01-.361,1.912a27.257,27.257,0,0,0,4.982,6.192,22.576,22.576,0,0,0,7.2,4.441,1.942,1.942,0,0,0,2.165-.342,37.142,37.142,0,0,0,2.4-3.178,1.714,1.714,0,0,1,2.2-.668c.829.288,5.217,2.457,6.119,2.906s1.5.668,1.716,1.048A7.648,7.648,0,0,1,142.982,146.407Z" transform="translate(-94.397 -103.043)" fill="#fafafa"/>
</svg>
