<svg xmlns="http://www.w3.org/2000/svg" width="69" height="69" viewBox="0 0 69 69">
  <g id="Group_1524" data-name="Group 1524" transform="translate(-115.375 -88.375)">
    <circle id="Ellipse_25" data-name="Ellipse 25" cx="34.5" cy="34.5" r="34.5" transform="translate(115.375 88.375)" fill="#fff"/>
    <path id="Icon_ionic-ios-close-circle" data-name="Icon ionic-ios-close-circle" d="M32.831,3.375A29.456,29.456,0,1,0,62.286,32.831,29.451,29.451,0,0,0,32.831,3.375Zm7.463,40.119-7.463-7.463-7.463,7.463a2.263,2.263,0,1,1-3.2-3.2l7.463-7.463-7.463-7.463a2.263,2.263,0,1,1,3.2-3.2l7.463,7.463,7.463-7.463a2.263,2.263,0,0,1,3.2,3.2l-7.463,7.463,7.463,7.463a2.274,2.274,0,0,1,0,3.2A2.248,2.248,0,0,1,40.294,43.494Z" transform="translate(115.008 87.976)" fill="#f62e2e"/>
  </g>
</svg>
